<?xml version="1.0" encoding="UTF-8"?>
<svg id="Layer_1" data-name="Layer 1" xmlns="http://www.w3.org/2000/svg" viewBox="0 0 576.71 391.8">
  <defs>
    <style>
      .cls-1 {
        stroke-width: 6.11px;
      }

      .cls-1, .cls-2, .cls-3, .cls-4, .cls-5, .cls-6, .cls-7, .cls-8, .cls-9, .cls-10, .cls-11, .cls-12, .cls-13, .cls-14, .cls-15, .cls-16 {
        fill: none;
        stroke: #fff;
        stroke-miterlimit: 10;
      }

      .cls-2 {
        stroke-width: 6.83px;
      }

      .cls-3 {
        stroke-width: 7.2px;
      }

      .cls-4 {
        stroke-width: 6.3px;
      }

      .cls-17 {
        fill: #90b29a;
      }

      .cls-17, .cls-18, .cls-19 {
        stroke-width: 0px;
      }

      .cls-5 {
        stroke-width: 5.62px;
      }

      .cls-6 {
        stroke-width: 5.5px;
      }

      .cls-7 {
        stroke-width: 5.1px;
      }

      .cls-8 {
        stroke-width: 7.39px;
      }

      .cls-18 {
        fill: #fff;
      }

      .cls-9 {
        stroke-width: 5.77px;
      }

      .cls-10 {
        stroke-width: 5.23px;
      }

      .cls-11 {
        stroke-width: 6.11px;
      }

      .cls-12 {
        stroke-width: 5.66px;
      }

      .cls-13 {
        stroke-width: 5.63px;
      }

      .cls-19 {
        fill: #003c47;
      }

      .cls-14 {
        stroke-width: 3.98px;
      }

      .cls-15 {
        stroke-width: 6.4px;
      }

      .cls-16 {
        stroke-width: 6.05px;
      }
    </style>
  </defs>
  <rect class="cls-19" width="576.71" height="391.8"/>
  <path class="cls-17" d="m519.85,199.43s24.88-27.84,46.19-.24c0,0-28.23,29.83-46.19.24Z"/>
  <path class="cls-17" d="m492.75,195s17.58-45.26,61.56-32.48c0,0-20.94,49.6-61.56,32.48Z"/>
  <path class="cls-18" d="m527.21,180.54s-35.09,3.06-33.63,13.13c0,0,15.94-11.06,33.63-13.13Z"/>
  <path class="cls-17" d="m495.32,194.69s47.54-9.06,54.45,42.22c0,0-52.79,8.26-54.45-42.22Z"/>
  <path class="cls-18" d="m521.58,217.78s-22.88-28.12-29.65-20.6c0,0,17.72,6.75,29.65,20.6Z"/>
  <rect class="cls-15" x="149.34" y="277.25" width="47.94" height="59.03"/>
  <rect class="cls-7" x="210.85" y="83.28" width="36.91" height="44.43"/>
  <rect class="cls-10" x="389.47" y="85.4" width="36.91" height="46.8"/>
  <polyline class="cls-13" points="447.72 341.84 410.42 341.84 410.42 283.94 447.72 283.94 447.72 308.73 429.07 308.73"/>
  <g>
    <line class="cls-5" x1="373.48" y1="282.27" x2="373.48" y2="343.52"/>
    <line class="cls-5" x1="373.48" y1="312.89" x2="401.2" y2="312.89"/>
  </g>
  <polyline class="cls-12" points="500.89 341.58 463.24 341.58 463.24 283.68 500.89 283.68 500.89 308.47 482.07 308.47"/>
  <polyline class="cls-1" points="554.31 343.08 554.31 282.7 512.19 282.7 512.19 343.08"/>
  <line class="cls-9" x1="140.17" y1="37.95" x2="140.17" y2="132.84"/>
  <line class="cls-9" x1="199.58" y1="37.95" x2="199.58" y2="132.84"/>
  <line class="cls-2" x1="147.48" y1="85.4" x2="192.26" y2="85.4"/>
  <line class="cls-6" x1="338.7" y1="36.89" x2="407.93" y2="36.89"/>
  <line class="cls-16" x1="373.31" y1="36.89" x2="373.31" y2="133.91"/>
  <polyline class="cls-11" points="264.64 83.04 264.64 127.96 290.87 127.96 290.87 105.5"/>
  <polyline class="cls-4" points="290.87 127.96 317.09 127.96 317.09 83.04"/>
  <polyline class="cls-3" points="82.29 280.2 134.44 280.2 134.44 336.28 30.15 336.28 30.15 194.08 199.86 194.08"/>
  <polyline class="cls-14" points="184.13 181.63 201.82 194.08 184.13 206.88"/>
  <polyline class="cls-8" points="306.37 283.46 358.52 283.46 358.52 342.47 254.23 342.47 254.23 192.84 358.52 192.84 496.42 194.02"/>
</svg>